<svg xmlns="http://www.w3.org/2000/svg" width="68.862" height="76.244" viewBox="0 0 68.862 76.244">
  <g id="Group_4174" data-name="Group 4174" transform="translate(-37.138 -73.756)">
    <path id="Icon_awesome-crown" data-name="Icon awesome-crown" d="M18.194,15.438H3.859a.553.553,0,0,0-.551.551v1.1a.553.553,0,0,0,.551.551H18.194a.553.553,0,0,0,.551-.551v-1.1A.553.553,0,0,0,18.194,15.438ZM20.4,4.411a1.654,1.654,0,0,0-1.654,1.654,1.62,1.62,0,0,0,.152.682L16.4,8.243a1.1,1.1,0,0,1-1.523-.4L12.071,2.929a1.654,1.654,0,1,0-2.088,0L7.174,7.843a1.1,1.1,0,0,1-1.523.4L3.16,6.747a1.654,1.654,0,1,0-1.506.972,1.689,1.689,0,0,0,.265-.028l2.491,6.644H17.643l2.491-6.644a1.689,1.689,0,0,0,.265.028,1.654,1.654,0,1,0,0-3.308Z" transform="matrix(0.809, -0.588, 0.588, 0.809, 37.837, 87.417)" fill="none" stroke="#c2ab11" stroke-width="1"/>
    <g id="Ellipse_793" data-name="Ellipse 793" transform="translate(42 86)" fill="#230647" stroke="#c2ab11" stroke-width="1">
      <circle cx="32" cy="32" r="32" stroke="none"/>
      <circle cx="32" cy="32" r="31.5" fill="none"/>
    </g>
  </g>
</svg>
