<svg xmlns="http://www.w3.org/2000/svg" xmlns:xlink="http://www.w3.org/1999/xlink" width="40.389" height="35.274" viewBox="0 0 40.389 35.274">
  <defs>
    <filter id="Icon_ionic-ios-arrow-back" x="5.865" y="0.239" width="27.524" height="35.034" filterUnits="userSpaceOnUse">
      <feOffset dy="3" input="SourceAlpha"/>
      <feGaussianBlur stdDeviation="3" result="blur"/>
      <feFlood flood-color="#34118b"/>
      <feComposite operator="in" in2="blur"/>
      <feComposite in="SourceGraphic"/>
    </filter>
    <filter id="Icon_ionic-ios-arrow-back-2" x="0" y="1.344" width="26.05" height="32.347" filterUnits="userSpaceOnUse">
      <feOffset dy="3" input="SourceAlpha"/>
      <feGaussianBlur stdDeviation="3" result="blur-2"/>
      <feFlood flood-color="#34118b"/>
      <feComposite operator="in" in2="blur-2"/>
      <feComposite in="SourceGraphic"/>
    </filter>
    <filter id="Icon_ionic-ios-arrow-back-3" x="12.865" y="0" width="27.524" height="35.034" filterUnits="userSpaceOnUse">
      <feOffset dy="3" input="SourceAlpha"/>
      <feGaussianBlur stdDeviation="3" result="blur-3"/>
      <feFlood flood-color="#34118b"/>
      <feComposite operator="in" in2="blur-3"/>
      <feComposite in="SourceGraphic"/>
    </filter>
  </defs>
  <g id="Group_8444" data-name="Group 8444" transform="translate(-20.322 -17.426)">
    <g id="Group_8443" data-name="Group 8443">
      <g transform="matrix(1, 0, 0, 1, 20.32, 17.43)" filter="url(#Icon_ionic-ios-arrow-back)">
        <g id="Icon_ionic-ios-arrow-back-4" data-name="Icon ionic-ios-arrow-back" transform="translate(3.81 0.25)" fill="#d0e5f6" stroke-linecap="round" stroke-linejoin="round" opacity="0.6">
          <path d="M 19.22757530212402 22.92812347412109 C 18.8936939239502 22.92812347412109 18.58121490478516 22.79409408569336 18.34769439697266 22.55071449279785 L 11.47728443145752 15.37516403198242 C 11.02798461914062 14.86346340179443 11.04390430450439 14.08408355712891 11.5106143951416 13.59764385223389 L 18.35247421264648 6.471653461456299 C 18.58898544311523 6.227763652801514 18.90216445922852 6.093653678894043 19.23466491699219 6.093653678894043 C 19.56665420532227 6.093653678894043 19.87830543518066 6.227903842926025 20.1121940612793 6.471683502197266 C 20.59529495239258 6.969833850860596 20.5954647064209 7.78519344329834 20.1121940612793 8.288883209228516 L 14.13975811004639 14.50877666473389 L 20.10747528076172 20.73354339599609 C 20.59054374694824 21.23166275024414 20.5907039642334 22.04703330993652 20.10744476318359 22.55071449279785 C 19.87392425537109 22.79409408569336 19.56145477294922 22.92812347412109 19.22757530212402 22.92812347412109 Z" stroke="none"/>
          <path d="M 19.22757530212402 22.82812309265137 C 19.51739501953125 22.82812309265137 19.81197547912598 22.71422386169434 20.0352840423584 22.48148345947266 C 20.48190498352051 22.01599311828613 20.48190498352051 21.26328277587891 20.0352840423584 20.80274391174316 L 14.00117492675781 14.50872325897217 L 20.04003524780273 8.219654083251953 C 20.48666381835938 7.754153728485107 20.48666381835938 7.001453876495361 20.04003524780273 6.540913581848145 C 19.59342575073242 6.075423717498779 18.87122535705566 6.080374240875244 18.42460441589355 6.540913581848145 L 11.58277416229248 13.66687393188477 C 11.15041446685791 14.11751365661621 11.14090442657471 14.84051322937012 11.54951477050781 15.30600357055664 L 18.41985511779785 22.48148345947266 C 18.64316368103027 22.71422386169434 18.937744140625 22.82812309265137 19.22757530212402 22.82812309265137 M 19.22757530212402 23.02812385559082 C 18.8661937713623 23.02812385559082 18.52808380126953 22.88316345214844 18.27554512023926 22.61995315551758 L 11.40505504608154 15.44432353973389 C 11.4030647277832 15.44223403930664 11.40111446380615 15.44011402130127 11.39920425415039 15.43794345855713 C 10.91888427734375 14.89075374603271 10.93612480163574 14.05198383331299 11.43845462799072 13.52841377258301 L 18.28033447265625 6.402393817901611 C 18.53619384765625 6.138563632965088 18.87486457824707 5.993653774261475 19.23466491699219 5.993653774261475 C 19.59415435791016 5.993653774261475 19.93142509460449 6.138833522796631 20.18435478210449 6.402443408966064 C 20.70411491394043 6.938393592834473 20.70444488525391 7.816053867340088 20.18435478210449 8.358123779296875 L 14.27834129333496 14.50883007049561 L 20.17965507507324 20.66433334350586 C 20.69935417175293 21.20023345947266 20.69969367980957 22.07788276672363 20.17960548400879 22.61995315551758 C 19.92705535888672 22.88316345214844 19.58894538879395 23.02812385559082 19.22757530212402 23.02812385559082 Z" stroke="none" fill="#350647"/>
        </g>
      </g>
      <g transform="matrix(1, 0, 0, 1, 20.32, 17.43)" filter="url(#Icon_ionic-ios-arrow-back-2)">
        <g id="Icon_ionic-ios-arrow-back-5" data-name="Icon ionic-ios-arrow-back" transform="translate(-2.05 1.35)" fill="#c1dbec" stroke-linecap="round" stroke-linejoin="round">
          <path d="M13.557,13.165,18.62,7.892a1.022,1.022,0,0,0,0-1.408.933.933,0,0,0-1.354,0l-5.736,5.975a1.025,1.025,0,0,0-.028,1.374l5.76,6.016a.934.934,0,0,0,1.354,0,1.022,1.022,0,0,0,0-1.408Z" stroke="none"/>
          <path d="M 17.93879318237305 20.140625 C 18.18179321289062 20.140625 18.42878341674805 20.04513549804688 18.61601448059082 19.84998512268066 C 18.99047470092773 19.4597053527832 18.99047470092773 18.82860374450684 18.61601448059082 18.44247436523438 L 13.55678367614746 13.16532516479492 L 18.61999320983887 7.892324924468994 C 18.99446296691895 7.502044677734375 18.99446296691895 6.870944499969482 18.61999320983887 6.484804630279541 C 18.24553489685059 6.094525337219238 17.64001655578613 6.09867525100708 17.26555442810059 6.484804630279541 L 11.52910423278809 12.45948505401611 C 11.16659355163574 12.83731460571289 11.15862369537354 13.44350433349609 11.50121402740479 13.83379459381104 L 17.26157379150391 19.84998512268066 C 17.44880294799805 20.04513549804688 17.69579315185547 20.140625 17.93879318237305 20.140625 M 17.93879318237305 20.34062385559082 C 17.62690353393555 20.34062385559082 17.33514404296875 20.21555519104004 17.11725425720215 19.98844528198242 L 11.3567533493042 13.97211456298828 C 11.35476398468018 13.97002506256104 11.35281372070312 13.96790504455566 11.35090351104736 13.96573448181152 C 10.93721389770508 13.49444484710693 10.95209407806396 12.77199459075928 11.38478374481201 12.32101440429688 L 17.12128448486328 6.346284866333008 C 17.34206390380859 6.118624687194824 17.63425445556641 5.993644714355469 17.94473457336426 5.993644714355469 C 18.25502395629883 5.993644714355469 18.54609298706055 6.118904590606689 18.76431465148926 6.346334457397461 C 19.21194458007812 6.807924747467041 19.2122745513916 7.563904762268066 18.76430320739746 8.030795097351074 L 13.83395004272461 13.16543102264404 L 18.76038360595703 18.30406379699707 C 19.20795440673828 18.76558494567871 19.20829391479492 19.52156448364258 18.76033401489258 19.98845481872559 C 18.54244422912598 20.21555519104004 18.25068473815918 20.34062385559082 17.93879318237305 20.34062385559082 Z" stroke="none" fill="rgba(53,6,71,0.92)"/>
        </g>
      </g>
      <g transform="matrix(1, 0, 0, 1, 20.32, 17.43)" filter="url(#Icon_ionic-ios-arrow-back-3)">
        <g id="Icon_ionic-ios-arrow-back-6" data-name="Icon ionic-ios-arrow-back" transform="translate(10.81 0.01)" fill="#d0e5f6" stroke-linecap="round" opacity="0.39">
          <path d="M14,14.509,20.04,8.22a1.219,1.219,0,0,0,0-1.679,1.113,1.113,0,0,0-1.615,0l-6.842,7.126a1.223,1.223,0,0,0-.033,1.639l6.87,7.175a1.114,1.114,0,0,0,1.615,0,1.219,1.219,0,0,0,0-1.679Z" stroke="none"/>
          <path d="M 19.22757530212402 22.82812309265137 C 19.51739501953125 22.82812309265137 19.81197547912598 22.71422386169434 20.0352840423584 22.48148345947266 C 20.48190498352051 22.01599311828613 20.48190498352051 21.26328277587891 20.0352840423584 20.80274391174316 L 14.00117492675781 14.50872325897217 L 20.04003524780273 8.219654083251953 C 20.48666381835938 7.754153728485107 20.48666381835938 7.001453876495361 20.04003524780273 6.540913581848145 C 19.59342575073242 6.075423717498779 18.87122535705566 6.080374240875244 18.42460441589355 6.540913581848145 L 11.58277416229248 13.66687393188477 C 11.15041446685791 14.11751365661621 11.14090442657471 14.84051322937012 11.54951477050781 15.30600357055664 L 18.41985511779785 22.48148345947266 C 18.64316368103027 22.71422386169434 18.937744140625 22.82812309265137 19.22757530212402 22.82812309265137 M 19.22757530212402 23.02812385559082 C 18.8661937713623 23.02812385559082 18.52808380126953 22.88316345214844 18.27554512023926 22.61995315551758 L 11.39920425415039 15.43794345855713 C 10.91888427734375 14.89075374603271 10.93612480163574 14.05198383331299 11.43845462799072 13.52841377258301 L 18.28033447265625 6.402393817901611 C 18.53619384765625 6.138563632965088 18.87486457824707 5.993653774261475 19.23466491699219 5.993653774261475 C 19.59415435791016 5.993653774261475 19.93142509460449 6.138833522796631 20.18435478210449 6.402443408966064 C 20.70411491394043 6.938393592834473 20.70444488525391 7.816053867340088 20.18435478210449 8.358123779296875 L 14.27834129333496 14.50883007049561 L 20.17965507507324 20.66433334350586 C 20.69935417175293 21.20023345947266 20.69969367980957 22.07788276672363 20.17960548400879 22.61995315551758 C 19.92705535888672 22.88316345214844 19.58894538879395 23.02812385559082 19.22757530212402 23.02812385559082 Z" stroke="none" fill="rgba(53,6,71,0.92)"/>
        </g>
      </g>
    </g>
  </g>
</svg>
